<?xml version="1.0" standalone="no"?>
<!DOCTYPE svg PUBLIC "-//W3C//DTD SVG 20010904//EN"
 "http://www.w3.org/TR/2001/REC-SVG-20010904/DTD/svg10.dtd">
<svg version="1.0" xmlns="http://www.w3.org/2000/svg"
 width="700.000000pt" height="700.000000pt" viewBox="0 0 700.000000 700.000000"
 preserveAspectRatio="xMidYMid meet">
<metadata>
Created by potrace 1.11, written by Peter Selinger 2001-2013
</metadata>
<g transform="translate(0.000000,700.000000) scale(0.100000,-0.100000)"
fill="#000000" stroke="none">
<path d="M3278 6996 c-1 -2 -41 -6 -88 -10 -87 -7 -105 -9 -225 -27 -116 -18
-123 -19 -192 -35 -154 -34 -203 -47 -313 -81 -260 -79 -581 -227 -815 -374
-261 -164 -513 -374 -730 -610 -239 -259 -469 -608 -605 -919 -23 -52 -46
-104 -51 -115 -47 -102 -149 -428 -175 -560 -2 -11 -11 -54 -19 -95 -8 -41
-17 -89 -19 -105 -3 -17 -7 -46 -11 -66 -21 -123 -30 -282 -30 -504 0 -194 7
-329 20 -406 2 -13 6 -46 9 -74 9 -78 23 -156 51 -285 23 -107 88 -333 114
-395 5 -11 26 -65 46 -120 64 -168 249 -531 312 -610 4 -6 34 -49 65 -95 223
-334 575 -681 928 -914 177 -117 208 -135 360 -213 247 -126 585 -249 823
-299 101 -21 216 -41 277 -49 25 -3 56 -7 69 -10 135 -26 700 -26 839 0 16 3
104 15 147 20 174 22 495 112 725 202 169 66 454 208 534 266 6 4 61 40 123
81 236 157 464 352 637 546 27 30 63 71 80 90 88 99 250 324 339 472 56 93
152 278 191 368 16 36 36 83 46 105 54 123 147 418 176 560 16 77 54 301 60
350 4 33 9 76 11 95 8 70 10 517 3 595 -13 131 -21 202 -25 227 -3 13 -8 43
-11 68 -3 25 -7 53 -10 62 -5 18 -11 46 -20 93 -13 73 -65 269 -99 369 -211
632 -581 1173 -1095 1604 -71 59 -334 252 -345 252 -2 0 -35 20 -72 44 -80 51
-310 172 -403 211 -36 15 -83 35 -105 45 -119 52 -416 142 -580 175 -44 9 -89
19 -100 21 -11 2 -38 6 -60 9 -22 3 -51 7 -65 10 -13 2 -52 7 -86 11 -33 3
-74 8 -90 10 -33 5 -540 14 -546 10z m482 -439 c19 -3 62 -9 95 -12 247 -24
575 -111 834 -222 233 -99 514 -266 690 -408 179 -146 362 -327 485 -479 65
-81 168 -228 266 -381 37 -57 159 -310 199 -412 81 -205 150 -451 176 -628 3
-23 8 -52 10 -65 3 -14 8 -54 11 -90 3 -36 9 -90 13 -121 13 -100 4 -477 -14
-599 -57 -389 -138 -662 -292 -979 -324 -665 -917 -1214 -1608 -1489 -90 -36
-276 -99 -315 -107 -8 -2 -44 -11 -80 -20 -36 -9 -74 -19 -85 -21 -11 -2 -42
-8 -70 -14 -65 -13 -100 -18 -155 -26 -25 -3 -52 -8 -61 -9 -130 -25 -499 -25
-734 -1 -170 18 -508 96 -630 145 -11 5 -38 14 -60 21 -22 7 -60 22 -85 32
-25 11 -54 24 -65 28 -147 61 -350 173 -515 284 -201 136 -447 354 -591 526
-29 36 -57 67 -60 70 -14 13 -132 174 -186 255 -178 269 -315 575 -396 885
-33 125 -62 266 -72 350 -3 25 -8 55 -10 68 -25 147 -25 597 0 744 2 13 6 41
9 64 34 293 157 677 316 981 340 650 915 1165 1598 1432 121 47 364 121 438
134 16 3 54 11 84 17 96 19 239 40 328 46 48 3 88 7 90 9 5 4 408 -3 442 -8z"/>
<path d="M1633 5361 l0 -240 736 0 c405 1 761 -2 791 -5 330 -37 606 -229 755
-526 49 -98 51 -102 74 -189 93 -340 -5 -707 -254 -956 -186 -186 -393 -272
-704 -289 -34 -2 -68 -9 -73 -14 -5 -5 -10 -57 -10 -113 2 -423 287 -911 677
-1156 131 -83 344 -168 475 -189 14 -3 48 -9 75 -14 28 -5 79 -13 115 -16 36
-3 67 -10 70 -14 3 -4 4 -60 4 -124 -1 -114 -1 -115 20 -104 11 6 66 37 121
68 99 57 145 82 280 155 60 33 150 83 365 203 25 14 58 33 73 42 l28 17 -38
20 c-21 10 -141 77 -268 148 -126 70 -255 142 -285 158 -30 17 -106 59 -169
94 -63 34 -118 63 -122 63 -12 0 -15 -31 -13 -132 1 -111 5 -108 -97 -101
-264 16 -583 243 -720 510 -31 60 -36 83 -18 83 21 0 236 108 307 154 285 185
489 447 597 766 51 150 85 365 79 500 -3 69 -13 190 -18 210 -1 8 -6 33 -10
55 -38 195 -128 406 -245 569 -54 77 -214 247 -276 295 -183 141 -430 252
-640 287 -16 3 -41 8 -55 12 -14 3 -385 7 -826 9 l-801 4 0 -240z"/>
</g>
</svg>
